<svg xmlns="http://www.w3.org/2000/svg" xml:space="preserve" width="1000px" height="616px" x="0px" y="0px" viewBox="0 0 1000 616"><path fill="#652D8D" d="M751.623 166.019c-23.097 0-41.894 18.785-41.894 41.891v96.763c0 39.986-25.852 69.752-60.148 69.752-34.296 0-60.164-29.766-60.164-69.752V207.91c0-23.492-17.917-41.891-40.775-41.891-23.098 0-41.886 18.785-41.886 41.891v98.588c0 85.852 61.397 148.771 142.825 148.771 39.493 0 75.969-15.499 102.708-43.645 26.575-27.981 41.22-65.979 41.22-106.951V207.91c0-23.107-18.788-41.891-41.886-41.891"/><path fill="#AACE37" d="M966.997 606.563c-3.52 0-7.08-.567-10.525-1.728l-112.994-28.622c-46.071 26.073-98.111 39.772-151.46 39.772H307.984C138.155 615.986 0 477.831 0 308.006 0 138.177 138.155.014 307.984.014h132.621c18.222 0 32.998 14.78 32.998 32.997 0 18.229-14.776 33.001-32.998 33.001H307.984c-133.436 0-241.99 108.555-241.99 241.994 0 133.432 108.555 241.978 241.99 241.978h384.034c46.179 0 91.073-13.049 129.818-37.733a33.028 33.028 0 0 1 28.269-3.445l73.971 21.823-31.254-64.539a32.954 32.954 0 0 1 3.445-28.253c24.684-38.761 37.741-83.656 37.741-129.83 0-133.439-108.554-241.994-241.99-241.994h-132.63c-18.221 0-32.988-14.771-32.988-33.001 0-18.217 14.768-32.997 32.988-32.997h132.63c169.829 0 307.977 138.164 307.977 307.992 0 53.36-13.699 105.385-39.765 151.464l38.038 103.563c4.013 11.873.929 24.996-7.927 33.86a33.01 33.01 0 0 1-23.344 9.669"/><path fill="#652D8D" d="M422.5 343.006c-11.191 0-21.708 4.365-29.618 12.275-12.597 12.598-29.379 19.537-47.238 19.537s-34.633-6.939-47.222-19.545c-13.124-13.115-20.639-30.333-20.639-47.234 0-16.91 7.515-34.128 20.639-47.255 12.614-12.609 29.387-19.565 47.222-19.565 17.843 0 34.617 6.956 47.238 19.565 7.902 7.914 18.419 12.276 29.618 12.276 11.19 0 21.707-4.362 29.626-12.276 16.321-16.326 16.321-42.897 0-59.239-28.434-28.442-66.25-44.106-106.482-44.106-40.217 0-78.024 15.664-106.458 44.106-58.701 58.717-58.701 154.263 0 212.997 28.393 28.393 66.2 44.031 106.458 44.031 40.266 0 78.081-15.647 106.482-44.048 16.321-16.322 16.321-42.914 0-59.252-7.927-7.918-18.452-12.267-29.626-12.267"/></svg>